<svg width="1920" height="1280" viewBox="0 0 1920 1280" fill="none" xmlns="http://www.w3.org/2000/svg" xmlns:xlink="http://www.w3.org/1999/xlink">
<g id="Complex-floors-2">
<g id="img-rect-2">
<rect id="Rectangle 2" width="1920" height="1280" fill="#D9D9D9"/>
<rect id="house-2" width="1920" height="1280" fill="url(#pattern0)"/>
</g>
<path id="Floors-1" d="M302 985V996L664.5 981.5L921.5 994.5L1375.5 1018V1008L1366 1006.5V925.5L1306 915.5L1210 903.5L1157.5 898.5L1116 895.5L1002.5 881.5L937.5 874.5L876.5 871.5L844.5 866L812 859L774.5 854L667.5 844L622.5 847.5L556.5 854L520 859L438 866L409.5 868L345.5 874.5H309L308 985H302Z" stroke="black"/>
<path id="Floors-2" d="M311 759.5L309 873.5H346L409 867L438 865L519 858L558 853L667.5 843L776.5 853.5L813 858L877 870.5L937.5 873.5L1036.5 884.5L1117 895L1209.5 902.5L1306.5 914.5L1366 924.5L1364.5 834L1302 822.5L1200.5 802.5L1039 777L1004 772.5L935 762.5L876 750L811.5 739.5L776.5 734L668 712L625 715L520 727.5L435.5 742.5C428.333 743.333 413.6 745 412 745C410.4 745 367.667 752 346.5 755.5L311 759.5Z" stroke="#FF0000"/>
<path id="Floors-3" d="M313.5 642.5C312.667 680.5 311 756.9 311 758.5L410.5 744L437.5 741L520 726.5L624.5 714L668.5 711L777 733L878 749.5L937 761.5L1036 775L1090.5 783.5L1199.5 801.5L1364.5 833L1363.5 738L1241 714L1152 696V689L1133.5 684.5L1125 687L1038 669V663L1020.5 658.5L1005 660L872.5 629.5L776.5 607.5L668 577.5L625 584.5L521.5 606L439 618.5L350.5 637L313.5 642.5Z" stroke="#00EF60"/>
<path id="Floors-4" d="M316.5 525L313.5 641.5L352.5 635.5L440 617L521 605.5L668.5 576.5L777 607L1005 659L1020.5 658L1038.5 663V668.5L1124.5 686L1133.5 683.5L1153 688V695.5L1363.5 737L1363 645.5L1304 630L1198 603L1153 589.5L1151.5 584L1134.5 579.5H1121.5L1037.5 555.5L1034.5 551.5L1018 546.5H1005.5C1003.5 546.5 956 534.5 932.5 528.5L776.5 480.5L669.5 443.5L475 491L439.5 498L351.5 519L316.5 525Z" stroke="#04E0EE"/>
<path id="Floors-5" d="M316 408.5V524L352.5 517.5L441.5 497L477 489.5L670 442.5L777 480L937 529L1005 545.5L1018 545L1035 550.5L1038 554.5L1121.5 578.5H1134.5L1152 583.5L1154 588.5L1240.5 613L1363 644V554.5L1303.5 536L1152.5 487V480L1135.5 474L1123 475.5L1038.5 444V440L1017.5 432L1005 435L780.5 356.5L671 312.5L524 356.5L443 377L316 408.5Z" stroke="#0904EE"/>
<path id="Floors-6" d="M315.5 329V407.5L523.5 355.5L671 311.5L777 354L1004.5 434L1017.5 431L1039 439V443.5L1123 474.5L1135.5 473L1153.5 479V486.5L1363.5 553.5L1362.5 482.5H1364.5V466L1303 442L1152 385.5V375.5L1132.5 367.5L1122.5 370.5C1095 358.667 1039.7 335 1038.5 335C1037.3 335 1037 329 1037 326L1019 320.5H1005.5L672 187L312 303.5V326.5L315.5 329Z" stroke="#EE04C9"/>
<path id="Floors-7" d="M311.5 299.5C312.3 299.5 311.833 301.5 311.5 302.5L671.5 186L1005.5 319.5H1019L1037.5 325L1038.5 334L1122.5 369.5L1132.5 366.5L1153 374.5V385L1362 464L1365.5 466L1369 466.5L1369.5 463.5V452L1360.5 447.5V414L1338.5 404.5L1335 408L1309 397.5V346.5L1344.5 338.5V333C1335.67 328.5 1317.5 319.5 1315.5 319.5C1313.5 319.5 1314.67 311.167 1315.5 307L763.5 40L742 47.5L712 33.5L563 89L524.5 73.5L446 103.5V112L474 122.5L355.5 166L357 173L410 192V201H414V206H418C419.2 206 418.5 209.333 418 211L366 228L357 225.5L322.5 238V280C322.5 280.4 311.5 285.5 306 288V299.5H311.5Z" stroke="#EEE504"/>
</g>
<defs>
<pattern id="pattern0" patternContentUnits="objectBoundingBox" width="1" height="1">
<use xlink:href="#image0_13_18" transform="matrix(0.000521648 0 0 0.000782473 -0.000782473 0)"/>
</pattern>

</defs>
</svg>
