<svg width="1920" height="1280" viewBox="0 0 1920 1280" fill="none" xmlns="http://www.w3.org/2000/svg" xmlns:xlink="http://www.w3.org/1999/xlink">
<g id="Complex-floors">
<g id="img-rect">
<rect id="Rectangle 1" width="1920" height="1280" fill="#D9D9D9"/>
<rect id="house 1" width="1920" height="1280" fill="url(#pattern0)"/>
</g>
<path id="Floors-13" d="M319 398.5C298.833 394.833 258.4 387.5 258 387.5L252 437.5L314 446.5L330 420.5L357.5 403.5L361.5 364L364.5 355.5L372 344L381 335L409 314L457 296L458 284.5L477.5 253.5L573 279H645L706.5 285.5L777.5 298L830 312L878 332L892 318.5L1022.5 340L1260 373L1262.5 412L1278 418L1301 424L1321 427.5L1374 434.5L1398 437.5H1414L1595.5 461.5L1604.5 463.5L1658 479.5L1653 433.5L1597.5 419.5V414.5L1317 373L1258.5 356L1256.5 320.5L893.5 262L880.5 274H879.5L820.5 249.5L744.5 230.5L675.5 221L577 218L484.5 195L461.5 235.5L406.5 260L381 284.5L368.5 309.5L364.5 345.5L363.5 346L335.5 370L319 398.5Z" stroke="#0EED17"/>
<path id="Floors-12" d="M1649 396C1631.5 391 1596.3 380.8 1595.5 380V364L1593.5 363.5L1503.5 349.5L1394 332.5L1309.5 319.5L1256 305.5L1255 269H1253.5L1215 262L1036.5 233C1019.5 230.167 985.4 224.4 985 224C984.6 223.6 924.167 212.833 894 207.5L879.5 222L850 207.5L811 192L734.5 173L672 164L577 162.5L486.5 139.5L466 182L430.5 198L415.5 207C410.5 210.333 400.3 217.2 399.5 218C398.7 218.8 390.167 228.667 386 233.5L373.5 253.5L369 283.5L367.5 298L363.5 322L339.5 318C333.5 332.167 321.4 360.8 321 362C320.6 363.2 282.167 355.167 263 351L258.5 386.5L319 397.5L335 369L363.5 345L367.5 308.5L380.5 283.5L406.5 259L461.5 234.5L484 194L577 217L675.5 220L744 229.5L821 248.5L880 273L893 261L1022.5 281L1257.5 319.5L1259.5 354.5L1317.5 372L1409.5 385.5L1598.5 413.5V418.5L1653 432.5L1649 396Z" stroke="#FF0000"/>
<path id="Floors-11" d="M314 447.5L252 438.5L246 492L308 498L323.5 473L353.5 447.5L356 420.5L366.5 401.5L386.5 385.5L411 372.5L451.5 358.5L471 322L569 343L687 345.5L762.5 357L821.5 372L878 391.5L891 379L1024 399L1260.5 430.5L1263 431.5L1264.5 469.5L1281.5 473L1304.5 477.5L1325 481L1351.5 484L1377 487.5C1385.33 488.5 1402.2 490.5 1403 490.5H1418L1607 514L1664.5 529L1658.5 480.5L1604 464.5L1595.5 462.5L1414 438.5H1398L1373.5 435L1349 432L1322 428.5L1302 425L1278 419L1261.5 413L1259 374L892.5 319.5L878 333L829 312.5L777 299L707.5 286.5L645 280H572.5L478.5 255H477.5L459 285L458 296.5L409 315L381.5 336L372.5 345L365.5 356L362.5 364L358.5 404.5H357.5L330.5 421L314 447.5Z" stroke="#0E17ED"/>
<path id="Floors-10" d="M308 499L245.5 493L239.5 545L302 550L317.5 528L347.5 511L349 487.5L354.5 474.5L367 461L388 446.5L427.5 432.5L445.5 424L447.5 410L467 386.5L562 403.5L578 415H632.5L747.5 425.5L829 444L876.5 459L891 442.5L1024.5 459L1265.5 489L1268 526L1284.5 527.5L1307.5 533.5L1329 535.5L1355.5 538.5L1380.5 542L1406.5 544H1422L1612 565H1616L1670 578.5L1665 529.5L1607 514.5L1418 491H1403L1377 488L1352 484.5L1325 481.5L1264 470L1262.5 432L1260.5 431L891 379.5L878 392L822 372.5L762.5 357.5L687 346L569 343.5L471 323L452 359L410.5 373.5L386.5 386.5L367 402L356.5 421L354 448L324 473.5L308 499Z" stroke="#F108F5"/>
<path id="Floors-9" d="M232 607.5L239 546L302 551L318.5 528.5L348 511.5L349.5 488L355.5 475L367.5 462L388.5 447.5L428 433.5L446.5 424L448.5 410.5L467.5 387.5L529.5 398.5L561.5 404C566.833 408 577.6 416 578 416H633L747.5 426.5L793.5 437L841.5 449L877 460L891.5 443.5L1024.5 460L1125.5 472.5L1203 482L1264.5 490L1267.5 527L1284 528L1308.5 535L1355 539.5L1382 543L1422 545L1612 566H1616L1670.5 579.5L1675.5 625L1619.5 613L1423 592L1358 583L1311.5 576L1286.5 570.5L1265 568V541L1024.5 514L1013.5 522.5L888 501.5L875 510L803.5 490L719.5 476L575 467L459.5 463.5L441.5 476L419 497.5L391.5 508L362 521.5L342 546L339 573.5L311 584L296 603L232 607.5Z" stroke="#EA0202"/>
<path id="Floors-8" d="M225.5 661C227.5 643.667 231.5 608.9 231.5 608.5L296 604L311.5 584.5L340 574L342.5 546.5L362.5 522.5L418 499L420.5 498L442 476.5C447.833 472.833 459.6 465.3 460 464.5C460.4 463.7 536.5 466.5 574.5 468L719 477L803.5 491L843.5 502L875 511L888.5 502.5L1013.5 523.5L1014 523L1025 515L1264 542L1264.5 569L1286.5 571.5L1310 576.5L1423 592.5L1619.5 614L1667.5 624L1676 626L1681 675.5L1626 666C1560.33 659.833 1428.9 647.5 1428.5 647.5C1428.1 647.5 1335.67 635.167 1289.5 629C1283.33 628.833 1270.9 628.5 1270.5 628.5C1270.1 628.5 1270.33 618.833 1270.5 614L1267.5 601L1024 578.5L1013 586L888 570.5L875 574.5L791.5 553.5L712 540.5L570.5 535.5L558.5 542.5L453 530.5L435 539.5L415.5 562.5L388.5 571L360.5 582.5L341.5 596.5L334.5 610.5L305 638L290 656.5L225.5 661Z" stroke="#5D5A5E"/>
<path id="Floors-7" d="M225.5 662L219.5 712.5H283.5L299 695.5L328.5 669.5L339 657L358.5 644.5L407 630L429.5 612L447 596L566 603.5L710.5 609.5L799 621.5L873.5 639L885.5 631L1014.5 646.5C1018.17 644.667 1025.6 641 1026 641C1026.4 641 1189.17 654 1270.5 660.5L1291 679.5V684.5L1432 702.5L1631.5 720L1687 726.5L1681 676L1625.5 666.5L1428 648L1289.5 629.5H1270V614L1267 601.5L1024 579.5L1013.5 587L888 571.5L875 575L791 554.5L711.5 541.5L570.5 536.5C567 538.333 559.8 542.2 559 543C558.2 543.8 488 535.333 453 531L435.5 540.5L416 563L389.5 571.5L361.5 583L342.5 597C340.333 601.167 335.9 609.7 335.5 610.5C335.1 611.3 315.333 629.5 305.5 638.5L290.5 657.5L225.5 662Z" stroke="#FA00FF"/>
<path id="Floors-6" d="M219.5 713.5C217.5 730.333 213.4 764.4 213 766H278L292 752L322 732.5L339 717.5L402 698.5L423 682L441.5 672.5L695 678.5L793 689.5L872 705L886.5 695.5L1014 710L1026.5 705L1272 721.5L1298.5 744L1435.5 760.5L1637 775L1692.5 778L1688 727.5L1631.5 721L1431 703.5L1290.5 685V680L1270 661L1025.5 642L1014.5 647.5L886 632L873.5 640.5L798 622.5L710.5 610.5L565.5 604L447.5 597L429 613.5L407.5 631L359 645.5L339 658L329.5 670L299 697L284 713.5H219.5Z" stroke="#07F22D"/>
<path id="Floors-5" d="M213 767C211.8 767 208.5 801.333 207 818.5L272 822.5L286 812L315.5 797L325.5 788L349 779.5L396.5 769.5L435.5 741L555.5 747.5L704 751.5L870 771.5L887 765.5L1015 775.5C1018.83 773.5 1026.6 769.5 1027 769.5C1027.4 769.5 1193.17 779.167 1276 784L1292.5 794L1298.5 803L1425.5 815.5L1440 820L1643.5 831.5L1700 836L1692.5 779L1637.5 776L1434.5 761.5L1298.5 745L1286 734L1271.5 722.5L1026 706L1014 711L886 696.5L872 706L792.5 690.5L696.5 679.5L560.5 676L441 673.5L423.5 683L402.5 699.5L365.5 709.5C357.5 712.333 341.2 718 340 718C338.8 718 327.833 728 322.5 733L292.5 752.5L278.5 767H213Z" stroke="#EA0202"/>
<path id="Floors-4" d="M207 819.5C206.2 819.5 201.667 863.167 199.5 885L264.5 885.5L280 871.5L310 863.5L324.5 853L390.5 841L409.5 827.5L429 822.5L449.5 817.5L551 822.5L701.5 825.5L870.5 841.5L885 832.5L1016.5 843L1028 847.5L1280.5 860L1429 872L1444 867.5L1645.5 881L1706 888.5L1700 836.5L1645 832.5L1440.5 821L1426 816.5L1298 804L1292 794L1276 785L1027 770.5L1015 776.5L886.5 766.5L870 772.5L703.5 752.5L555.5 748.5L435.5 742L417.5 755L397 770L349.5 780L326 789L316.5 797.5L286.5 813L272.5 823.5C251 822.167 207.8 819.5 207 819.5Z" stroke="black"/>
<path id="Floors-3" d="M199.5 886L192 945L259 943L274 933.5L304 924L314.5 918.5L346 913L403.5 906.5L423.5 890L531 892V902.5L737.5 906L869.5 916L885 907L1017.5 916L1028.5 917L1285.5 926.5L1433 935L1448.5 929L1653.5 938L1712 944.5L1706.5 889.5L1645.5 882L1443.5 868.5L1428.5 873L1284 861L1027.5 848.5L1016.5 844L885 833.5L870.5 842.5L835.5 839L699 826.5L552.5 823.5L449.5 818.5L428.5 823.5L410 828.5L390.5 842L361.5 846L325.5 854L310 864.5L280 872.5C275.333 877 265.8 886 265 886H199.5Z" stroke="#FC8A04"/>
<path id="Floors-2" d="M191.5 946L184 1004.5L252.5 1003L267.5 996L296.5 992.5L335.5 986.5L396.5 982.5L416 975L525.5 979.5L868.5 988.5L884.5 979.5L1018 987L1030.5 989L1291.5 995L1438.5 999.5L1454 993L1662.5 999.5L1709.5 1003.5H1718.5L1712.5 945.5L1653.5 939L1448 930L1433.5 936L1287.5 927.5L1029 918L1016.5 917L884.5 908L870 917L736.5 907L530 903.5V893L423.5 891L403.5 908L348.5 914L314.5 919.5L304 925L273.5 934.5L259 944L191.5 946Z" stroke="#04FCED"/>
<path id="Floors-1" d="M177.5 1068.5L259.5 1066.5L290 1064L318.5 1063L320 1060L390 1059H411.5L868.5 1062.5H883.5L1019.5 1064.5H1030.5L1293 1067.5H1444H1459.5L1727 1069.5C1724.17 1047.33 1718.5 1003.3 1718.5 1004.5C1718.5 1005.7 1680.17 1002.33 1661 1000.5L1453.5 994L1438 1000.5L1290.5 996C1204.5 994 1032.1 990 1030.5 990C1028.9 990 1020.83 988.667 1017 988L883.5 980.5L868.5 990L710 983.5L525 980.5L415.5 976L396.5 983.5L335 987.5L296 993.5L266.5 997L252 1003.5L184.5 1005.5L177.5 1068.5Z" stroke="#CAFC04"/>
</g>
<defs>
<pattern id="pattern0" patternContentUnits="objectBoundingBox" width="1" height="1">
<use xlink:href="#image0_11_43" transform="scale(0.000520833 0.00078125)"/>
</pattern>

</defs>
</svg>
